<svg width="328" height="238" viewBox="0 0 328 238" fill="none" xmlns="http://www.w3.org/2000/svg">
<g filter="url(#filter0_d)">
<path d="M296.826 57.6237C283.349 57.6237 272.424 46.112 272.424 31.9115C272.424 17.711 283.349 6.19922 296.826 6.19922C310.302 6.19922 321.227 17.711 321.227 31.9115C321.227 46.112 310.302 57.6237 296.826 57.6237Z" fill="#F2C94C"/>
<path d="M296.827 55.4782C284.475 55.4782 274.463 44.9277 274.463 31.9129C274.463 18.8982 284.475 8.34766 296.827 8.34766C309.178 8.34766 319.19 18.8982 319.19 31.9129C319.19 44.9277 309.178 55.4782 296.827 55.4782Z" fill="#F2994A"/>
<path d="M296.826 32.649C297 32.6487 297.168 32.5804 297.297 32.4572L309.432 20.8274C309.563 20.6943 309.64 20.5125 309.646 20.3208C309.652 20.129 309.587 19.9422 309.464 19.8002C309.342 19.6582 309.172 19.572 308.99 19.56C308.808 19.5481 308.629 19.6112 308.491 19.7361L296.816 30.9236L287.836 22.6527C287.767 22.589 287.687 22.5402 287.599 22.5092C287.512 22.4783 287.42 22.4657 287.329 22.4722C287.237 22.4787 287.147 22.5042 287.065 22.5472C286.983 22.5902 286.909 22.6498 286.849 22.7228C286.788 22.7957 286.742 22.8805 286.712 22.9723C286.683 23.064 286.671 23.161 286.677 23.2577C286.683 23.3543 286.708 23.4487 286.748 23.5355C286.789 23.6223 286.846 23.6998 286.915 23.7635L296.365 32.4664C296.492 32.5842 296.656 32.6492 296.826 32.649Z" fill="#F2C94C"/>
<path d="M296.122 49.9414H297.587V53.9953H296.122V49.9414Z" fill="#F2C94C"/>
<path d="M296.122 9.82812H297.587V13.882H296.122V9.82812Z" fill="#F2C94C"/>
<path d="M313.966 32.6845V31.1406H317.814V32.6845H313.966Z" fill="#F2C94C"/>
<path d="M275.897 32.6845V31.1406H279.745V32.6845H275.897Z" fill="#F2C94C"/>
<path d="M296.826 32.3789L290.902 51.1505" stroke="#F2C94C" stroke-width="2" stroke-linecap="round" stroke-linejoin="round"/>
<path d="M296.823 34.6295C295.398 34.6295 294.243 33.4122 294.243 31.9105C294.243 30.4088 295.398 29.1914 296.823 29.1914C298.249 29.1914 299.404 30.4088 299.404 31.9105C299.404 33.4122 298.249 34.6295 296.823 34.6295Z" fill="#F2C94C"/>
<path d="M296.825 33.5152C295.985 33.5152 295.305 32.7982 295.305 31.9138C295.305 31.0294 295.985 30.3125 296.825 30.3125C297.664 30.3125 298.344 31.0294 298.344 31.9138C298.344 32.7982 297.664 33.5152 296.825 33.5152Z" fill="#F2C94C"/>
<path d="M254.856 229.457C239.144 229.457 226.406 226.701 226.406 223.301C226.406 219.901 239.144 217.145 254.856 217.145C270.569 217.145 283.307 219.901 283.307 223.301C283.307 226.701 270.569 229.457 254.856 229.457Z" fill="#EBF5FF"/>
<path d="M203.662 226.146C190.433 226.146 179.709 222.675 179.709 218.393C179.709 214.112 190.433 210.641 203.662 210.641C216.891 210.641 227.616 214.112 227.616 218.393C227.616 222.675 216.891 226.146 203.662 226.146Z" fill="#EBF5FF"/>
<path d="M59.7637 202.91H323.953V204.147H59.7637V202.91Z" fill="#CBCFD7"/>
<path d="M69.8911 0H243.533C249.168 0 253.736 4.81341 253.736 10.7511V139.318C253.736 145.256 249.168 150.069 243.533 150.069H69.8911C64.2562 150.069 59.6882 145.256 59.6882 139.318V10.7511C59.6882 4.81341 64.2562 0 69.8911 0Z" fill="#2C6AFA"/>
<path d="M75.2765 6.25391H238.15C243.371 6.25391 247.604 10.714 247.604 16.2158V133.853C247.604 139.354 243.371 143.814 238.15 143.814H75.2765C70.0552 143.814 65.8225 139.354 65.8225 133.853V16.2158C65.8225 10.714 70.0552 6.25391 75.2765 6.25391Z" fill="#37445F"/>
<path d="M76.0149 102.516H121.872C124.496 102.516 126.623 104.757 126.623 107.522V127.356C126.623 130.121 124.496 132.362 121.872 132.362H76.0149C73.391 132.362 71.2639 130.121 71.2639 127.356V107.522C71.2639 104.757 73.391 102.516 76.0149 102.516Z" fill="#F2C94C"/>
<path d="M215.27 20.793H240C241.993 20.793 243.609 22.4958 243.609 24.5964V46.8361C243.609 48.9367 241.993 50.6395 240 50.6395H215.27C213.277 50.6395 211.661 48.9367 211.661 46.8361V24.5964C211.661 22.4958 213.277 20.793 215.27 20.793Z" fill="#F2C94C"/>
<path d="M215.302 56.7852H240.032C242.026 56.7852 243.642 58.488 243.642 60.5886V82.8283C243.642 84.9289 242.026 86.6317 240.032 86.6317H215.302C213.309 86.6317 211.693 84.9289 211.693 82.8283V60.5886C211.693 58.488 213.309 56.7852 215.302 56.7852Z" fill="white"/>
<path d="M215.302 92.7969H240.032C242.026 92.7969 243.642 94.4998 243.642 96.6004V118.84C243.642 120.941 242.026 122.643 240.032 122.643H215.302C213.309 122.643 211.693 120.941 211.693 118.84V96.6004C211.693 94.4998 213.309 92.7969 215.302 92.7969Z" fill="#F2C94C"/>
<path d="M195.087 101.043H201.977V128.314H195.087V101.043Z" fill="white"/>
<path d="M182.983 104.582H189.873V128.31H182.983V104.582Z" fill="white"/>
<path d="M170.883 111.668H177.773V128.313H170.883V111.668Z" fill="white"/>
<path d="M158.783 106.352H165.673V128.31H158.783V106.352Z" fill="white"/>
<path d="M146.684 111.668H153.574V128.313H146.684V111.668Z" fill="white"/>
<path d="M134.585 106.352H141.475V128.31H134.585V106.352Z" fill="white"/>
<path d="M131.895 130.613H204.495V131.676H131.895V130.613Z" fill="white"/>
<path d="M206.492 12.4258H207.893V124.427H206.492V12.4258Z" fill="white"/>
<path d="M185.421 142.828H190.015V214.983H185.421V142.828Z" fill="#191E56"/>
<path d="M297.137 142.828H301.731V214.983H297.137V142.828Z" fill="#191E56"/>
<path d="M177.357 138.695H309.207V141.59H177.357V138.695Z" fill="#F2C94C"/>
<path d="M177.357 141.59H309.207V144.485H177.357V141.59Z" fill="#191E56"/>
<path d="M210.758 134.82H264.322V138.697H210.758V134.82Z" fill="#0542BF"/>
<path d="M219.878 123.831C219.878 123.831 210.656 122.038 207.255 122.107C203.853 122.176 196.595 123.899 195.025 128.173C193.455 132.446 201.756 132.376 206.631 128.173L217.85 133.272L219.878 123.831Z" fill="#BE8B7A"/>
<path d="M222.877 205.402C222.877 205.402 225.84 217.07 224.198 218.54C222.556 220.011 221.232 219.774 214.018 219.774C206.219 219.774 200.251 220.1 199.846 215.862C199.44 211.623 200.077 207.152 206.645 207.85C213.384 208.566 212.355 207.976 213.859 205.402H222.877Z" fill="#37445F"/>
<path d="M231.999 148.102C231.999 148.102 219.244 145.414 213.458 146.034C207.671 146.655 209.141 168.052 209.141 168.052L213.163 205.577C213.163 205.577 215.518 209.506 223.857 206.197C223.857 206.197 223.693 171.154 226.146 168.569L232 161.54L231.999 148.102Z" fill="#191E56"/>
<path d="M259.452 80.3288C259.452 80.3288 257.759 87.2384 258.989 90.1574H250.678C250.678 90.1574 251.958 81.5418 251.385 79.2903L254.341 76.5L259.452 80.3288Z" fill="#BE8B7A"/>
<path d="M247.674 62.6686L247.129 61.4888C247.129 61.4888 242.253 58.7112 242.868 51.3684C242.868 51.3684 249.909 52.9916 254.242 51.7418C258.575 50.4919 264.533 52.2817 265.471 56.1621C265.471 56.1621 269.895 57.0811 270.545 61.8702C271.194 66.6593 268.541 74.5408 265.236 78.1927C261.932 81.8445 258.195 81.7319 256.029 81.161C253.863 80.5901 253.772 79.3724 253.772 79.3724L251.136 76.8613L247.674 62.6686Z" fill="#37445F"/>
<path d="M247.047 61.5039C247.047 61.5039 244.989 68.772 245.603 74.0608C246.216 79.3496 247.914 84.0296 252.035 80.9096C253.515 79.5782 253.696 79.3875 253.696 79.3875C253.696 79.3875 252.467 77.2187 252.684 74.518C252.684 74.518 254.995 73.6427 254.49 71.4359C253.984 69.2292 252.54 68.6192 251.602 69.4187C251.602 69.4187 251.929 65.5762 251.24 64.4344C250.551 63.2925 247.047 61.5039 247.047 61.5039Z" fill="#BE8B7A"/>
<path d="M248.404 86.4883H260.874V90.4859H248.404V86.4883Z" fill="#EDF0F7"/>
<path d="M208.552 209.949C208.552 209.949 211.516 221.617 209.875 223.087C208.233 224.558 206.907 224.321 199.695 224.321C191.895 224.321 185.928 224.647 185.522 220.409C185.117 216.17 185.754 211.7 192.322 212.397C199.061 213.113 198.032 212.522 199.535 209.949H208.552Z" fill="#7A8398"/>
<path d="M232.392 152.105L229.645 152.961C229.645 152.961 213.237 153.13 208.059 153.478C200.74 153.97 188.537 153.168 190.113 166.399C191.135 174.977 199.174 210.603 199.174 210.603C199.174 210.603 202.875 212.927 209.138 209.919C209.138 209.919 205.649 181.383 205.705 175.933C205.76 170.482 214.828 171.361 226.894 172.809C237.979 174.139 255.372 174.311 260.869 168.904L232.392 152.105Z" fill="#153077"/>
<path d="M260.323 90.4867H261.705C261.705 90.4867 269.97 91.1679 271.146 98.4199C272.322 105.672 272.105 125.53 272.018 128.914C271.931 132.299 271.851 150.649 268.479 158.83C265.108 167.011 261.029 169.675 251.539 170.037C242.049 170.399 232.639 169.986 229.344 157.26C226.05 144.533 232.909 142.945 232.909 142.945C232.909 142.945 235.618 130.897 235.308 125.691C235.308 125.691 231.224 135.637 226.519 137.371C221.813 139.106 216.053 133.475 216.053 133.475C216.053 133.475 215.104 124.263 219.257 122.609C219.257 122.609 222.401 123.006 223.702 122.417C224.925 121.863 226.883 116.889 229.838 107.035C232.794 97.1815 235.166 94.0397 238.989 92.5521C242.812 91.0645 248.401 90.4844 248.401 90.4844L260.323 90.4867Z" fill="#EDF0F7"/>
<path d="M234.057 173.843C234.057 173.843 233.37 170.431 233.468 160.3C233.566 150.17 236.608 149.859 243.573 149.962C250.538 150.064 267.314 152.856 271.046 147.481C274.777 142.106 277.914 125.462 278.796 119.674C279.678 113.885 281.641 97.3447 282.524 89.4884C283.407 81.6322 284.093 68.1942 294.885 72.1218C305.676 76.0493 294.198 135.697 292.824 142.622C291.45 149.548 287.527 174.407 275.46 174.848C263.393 175.289 234.057 173.843 234.057 173.843Z" fill="#0E1524"/>
<path d="M206.444 138.764C206.444 138.764 206.248 134.169 200.9 134.008C195.553 133.847 195.321 138.764 195.321 138.764H206.444Z" fill="#2C6AFA"/>
<path d="M159.769 79.4609H199.377C199.946 79.4609 200.408 79.947 200.408 80.5465C200.408 81.146 199.946 81.6321 199.377 81.6321H159.769C159.2 81.6321 158.739 81.146 158.739 80.5465C158.739 79.947 159.2 79.4609 159.769 79.4609Z" fill="#43C66F"/>
<path d="M140.221 83.5273H199.377C199.946 83.5273 200.408 84.0134 200.408 84.6129C200.408 85.2124 199.946 85.6985 199.377 85.6985H140.221C139.652 85.6985 139.191 85.2124 139.191 84.6129C139.191 84.0134 139.652 83.5273 140.221 83.5273Z" fill="#EBF5FF"/>
<path d="M140.221 87.5938H199.377C199.946 87.5938 200.408 88.0798 200.408 88.6793C200.408 89.2788 199.946 89.7649 199.377 89.7649H140.221C139.652 89.7649 139.191 89.2788 139.191 88.6793C139.191 88.0798 139.652 87.5938 140.221 87.5938Z" fill="#EBF5FF"/>
<path d="M140.221 91.6602H199.377C199.946 91.6602 200.408 92.1462 200.408 92.7457C200.408 93.3453 199.946 93.8313 199.377 93.8313H140.221C139.652 93.8313 139.191 93.3453 139.191 92.7457C139.191 92.1462 139.652 91.6602 140.221 91.6602Z" fill="#EBF5FF"/>
<path d="M140.221 95.7266H199.377C199.946 95.7266 200.408 96.2126 200.408 96.8121C200.408 97.4117 199.946 97.8977 199.377 97.8977H140.221C139.652 97.8977 139.191 97.4117 139.191 96.8121C139.191 96.2126 139.652 95.7266 140.221 95.7266Z" fill="#EBF5FF"/>
<path d="M72.4908 79.4609H131.647C132.216 79.4609 132.677 79.947 132.677 80.5465C132.677 81.146 132.216 81.6321 131.647 81.6321H72.4908C71.9218 81.6321 71.4606 81.146 71.4606 80.5465C71.4606 79.947 71.9218 79.4609 72.4908 79.4609Z" fill="#EBF5FF"/>
<path d="M72.4908 83.5273H131.647C132.216 83.5273 132.677 84.0134 132.677 84.6129C132.677 85.2124 132.216 85.6985 131.647 85.6985H72.4908C71.9218 85.6985 71.4606 85.2124 71.4606 84.6129C71.4606 84.0134 71.9218 83.5273 72.4908 83.5273Z" fill="#43C66F"/>
<path d="M72.4908 87.5938H131.647C132.216 87.5938 132.677 88.0798 132.677 88.6793C132.677 89.2788 132.216 89.7649 131.647 89.7649H72.4908C71.9218 89.7649 71.4606 89.2788 71.4606 88.6793C71.4606 88.0798 71.9218 87.5938 72.4908 87.5938Z" fill="#43C66F"/>
<path d="M72.4908 91.6602H131.647C132.216 91.6602 132.677 92.1462 132.677 92.7457C132.677 93.3453 132.216 93.8313 131.647 93.8313H72.4908C71.9218 93.8313 71.4606 93.3453 71.4606 92.7457C71.4606 92.1462 71.9218 91.6602 72.4908 91.6602Z" fill="#EBF5FF"/>
<path d="M159.604 20.7344H199.212C199.781 20.7344 200.243 21.2204 200.243 21.8199C200.243 22.4195 199.781 22.9055 199.212 22.9055H159.604C159.035 22.9055 158.574 22.4195 158.574 21.8199C158.574 21.2204 159.035 20.7344 159.604 20.7344Z" fill="#43C66F"/>
<path d="M140.056 24.7969H199.212C199.781 24.7969 200.243 25.2829 200.243 25.8824C200.243 26.482 199.781 26.968 199.212 26.968H140.056C139.487 26.968 139.026 26.482 139.026 25.8824C139.026 25.2829 139.487 24.7969 140.056 24.7969Z" fill="#EBF5FF"/>
<path d="M140.056 28.8633H199.212C199.781 28.8633 200.243 29.3493 200.243 29.9488C200.243 30.5484 199.781 31.0344 199.212 31.0344H140.056C139.487 31.0344 139.026 30.5484 139.026 29.9488C139.026 29.3493 139.487 28.8633 140.056 28.8633Z" fill="#EBF5FF"/>
<path d="M140.056 32.9336H199.212C199.781 32.9336 200.243 33.4196 200.243 34.0192C200.243 34.6187 199.781 35.1047 199.212 35.1047H140.056C139.487 35.1047 139.026 34.6187 139.026 34.0192C139.026 33.4196 139.487 32.9336 140.056 32.9336Z" fill="#EBF5FF"/>
<path d="M140.056 36.9961H199.212C199.781 36.9961 200.243 37.4821 200.243 38.0817C200.243 38.6812 199.781 39.1672 199.212 39.1672H140.056C139.487 39.1672 139.026 38.6812 139.026 38.0817C139.026 37.4821 139.487 36.9961 140.056 36.9961Z" fill="#EBF5FF"/>
<path d="M72.3208 20.7344H131.477C132.046 20.7344 132.507 21.2204 132.507 21.8199C132.507 22.4195 132.046 22.9055 131.477 22.9055H72.3208C71.7519 22.9055 71.2906 22.4195 71.2906 21.8199C71.2906 21.2204 71.7519 20.7344 72.3208 20.7344Z" fill="#EBF5FF"/>
<path d="M72.3208 24.7969H131.477C132.046 24.7969 132.507 25.2829 132.507 25.8824C132.507 26.482 132.046 26.968 131.477 26.968H72.3208C71.7519 26.968 71.2906 26.482 71.2906 25.8824C71.2906 25.2829 71.7519 24.7969 72.3208 24.7969Z" fill="#43C66F"/>
<path d="M72.3208 28.8633H131.477C132.046 28.8633 132.507 29.3493 132.507 29.9488C132.507 30.5484 132.046 31.0344 131.477 31.0344H72.3208C71.7519 31.0344 71.2906 30.5484 71.2906 29.9488C71.2906 29.3493 71.7519 28.8633 72.3208 28.8633Z" fill="#43C66F"/>
<path d="M72.3208 32.9336H131.477C132.046 32.9336 132.507 33.4196 132.507 34.0192C132.507 34.6187 132.046 35.1047 131.477 35.1047H72.3208C71.7519 35.1047 71.2906 34.6187 71.2906 34.0192C71.2906 33.4196 71.7519 32.9336 72.3208 32.9336Z" fill="#EBF5FF"/>
<path d="M159.604 49.793H199.212C199.781 49.793 200.243 50.279 200.243 50.8785C200.243 51.4781 199.781 51.9641 199.212 51.9641H159.604C159.035 51.9641 158.574 51.4781 158.574 50.8785C158.574 50.279 159.035 49.793 159.604 49.793Z" fill="#43C66F"/>
<path d="M140.056 53.8633H199.212C199.781 53.8633 200.243 54.3493 200.243 54.9488C200.243 55.5484 199.781 56.0344 199.212 56.0344H140.056C139.487 56.0344 139.026 55.5484 139.026 54.9488C139.026 54.3493 139.487 53.8633 140.056 53.8633Z" fill="#EBF5FF"/>
<path d="M140.056 57.9297H199.212C199.781 57.9297 200.243 58.4157 200.243 59.0152C200.243 59.6148 199.781 60.1008 199.212 60.1008H140.056C139.487 60.1008 139.026 59.6148 139.026 59.0152C139.026 58.4157 139.487 57.9297 140.056 57.9297Z" fill="#EBF5FF"/>
<path d="M140.056 61.9961H199.212C199.781 61.9961 200.243 62.4821 200.243 63.0817C200.243 63.6812 199.781 64.1672 199.212 64.1672H140.056C139.487 64.1672 139.026 63.6812 139.026 63.0817C139.026 62.4821 139.487 61.9961 140.056 61.9961Z" fill="#EBF5FF"/>
<path d="M140.056 66.0586H199.212C199.781 66.0586 200.243 66.5446 200.243 67.1442C200.243 67.7437 199.781 68.2297 199.212 68.2297H140.056C139.487 68.2297 139.026 67.7437 139.026 67.1442C139.026 66.5446 139.487 66.0586 140.056 66.0586Z" fill="#EBF5FF"/>
<path d="M72.3208 49.793H131.477C132.046 49.793 132.507 50.279 132.507 50.8785C132.507 51.4781 132.046 51.9641 131.477 51.9641H72.3208C71.7519 51.9641 71.2906 51.4781 71.2906 50.8785C71.2906 50.279 71.7519 49.793 72.3208 49.793Z" fill="#EBF5FF"/>
<path d="M72.3208 53.8633H131.477C132.046 53.8633 132.507 54.3493 132.507 54.9488C132.507 55.5484 132.046 56.0344 131.477 56.0344H72.3208C71.7519 56.0344 71.2906 55.5484 71.2906 54.9488C71.2906 54.3493 71.7519 53.8633 72.3208 53.8633Z" fill="#EBF5FF"/>
<path d="M72.3208 57.9297H131.477C132.046 57.9297 132.507 58.4157 132.507 59.0152C132.507 59.6148 132.046 60.1008 131.477 60.1008H72.3208C71.7519 60.1008 71.2906 59.6148 71.2906 59.0152C71.2906 58.4157 71.7519 57.9297 72.3208 57.9297Z" fill="#EBF5FF"/>
<path d="M72.3208 61.9961H131.477C132.046 61.9961 132.507 62.4821 132.507 63.0817C132.507 63.6812 132.046 64.1672 131.477 64.1672H72.3208C71.7519 64.1672 71.2906 63.6812 71.2906 63.0817C71.2906 62.4821 71.7519 61.9961 72.3208 61.9961Z" fill="#EBF5FF"/>
<path d="M72.4908 95.7266H131.647C132.216 95.7266 132.677 96.2126 132.677 96.8121C132.677 97.4117 132.216 97.8977 131.647 97.8977H72.4908C71.9218 97.8977 71.4606 97.4117 71.4606 96.8121C71.4606 96.2126 71.9218 95.7266 72.4908 95.7266Z" fill="#EBF5FF"/>
<path d="M257.718 184.277V209.09H252.862V187.833C254.548 185.758 256.345 184.759 257.718 184.277Z" fill="#172272"/>
<path d="M252.862 187.831V178.078H257.718V184.281C256.345 184.757 254.548 185.756 252.862 187.831Z" fill="#191E56"/>
<path d="M236.887 208.277H274.147V210.64H236.887V208.277Z" fill="#172272"/>
<path d="M236.887 210.641H274.147V214.176H236.887V210.641Z" fill="#191E56"/>
<path d="M276.914 215.238C277.547 216.085 277.869 217.145 277.821 218.222C277.773 219.299 277.357 220.322 276.651 221.103C275.945 221.883 274.995 222.369 273.976 222.471C272.957 222.573 271.937 222.284 271.104 221.657C271.831 216.709 274.786 215.467 276.914 215.238Z" fill="#37445F"/>
<path d="M269.328 218.029C269.329 217.099 269.604 216.192 270.115 215.434C270.627 214.676 271.349 214.105 272.183 213.799C273.017 213.494 273.92 213.469 274.767 213.729C275.615 213.989 276.365 214.52 276.913 215.249C274.785 215.479 271.83 216.717 271.103 221.668C270.554 221.254 270.107 220.707 269.798 220.074C269.49 219.442 269.329 218.74 269.328 218.029Z" fill="#0E1524"/>
<path d="M240.22 215.238C240.854 216.085 241.176 217.145 241.128 218.222C241.079 219.299 240.664 220.322 239.957 221.103C239.251 221.883 238.301 222.369 237.282 222.471C236.264 222.573 235.244 222.284 234.411 221.657C235.139 216.709 238.093 215.467 240.22 215.238Z" fill="#37445F"/>
<path d="M232.636 218.016C232.637 217.086 232.912 216.18 233.424 215.422C233.935 214.664 234.658 214.093 235.491 213.788C236.324 213.482 237.227 213.458 238.075 213.717C238.922 213.976 239.672 214.507 240.22 215.236C238.093 215.466 235.138 216.704 234.41 221.655C233.861 221.241 233.414 220.694 233.105 220.062C232.797 219.429 232.636 218.727 232.636 218.016Z" fill="#0E1524"/>
<path d="M229.318 173.359H281.146V175.425H229.318V173.359Z" fill="#F2C94C"/>
<path d="M229.318 175.426H281.146V179.259H229.318V175.426Z" fill="#191E56"/>
</g>
<defs>
<filter id="filter0_d" x="55.688" y="0" width="272.265" height="237.457" filterUnits="userSpaceOnUse" color-interpolation-filters="sRGB">
<feFlood flood-opacity="0" result="BackgroundImageFix"/>
<feColorMatrix in="SourceAlpha" type="matrix" values="0 0 0 0 0 0 0 0 0 0 0 0 0 0 0 0 0 0 127 0"/>
<feOffset dy="4"/>
<feGaussianBlur stdDeviation="2"/>
<feColorMatrix type="matrix" values="0 0 0 0 0 0 0 0 0 0 0 0 0 0 0 0 0 0 0.25 0"/>
<feBlend mode="normal" in2="BackgroundImageFix" result="effect1_dropShadow"/>
<feBlend mode="normal" in="SourceGraphic" in2="effect1_dropShadow" result="shape"/>
</filter>
</defs>
</svg>
